<svg width="16" height="16" viewBox="0 0 16 16" fill="none" xmlns="http://www.w3.org/2000/svg">
<path d="M10.5 15.5V11C10.5 10.5333 10.5 10.2999 10.4092 10.1217C10.3293 9.96487 10.2018 9.83739 10.045 9.75749C9.86673 9.66667 9.63338 9.66667 9.16667 9.66667H6.83333C6.36662 9.66667 6.13327 9.66667 5.95501 9.75749C5.79821 9.83739 5.67072 9.96487 5.59083 10.1217C5.5 10.2999 5.5 10.5333 5.5 11V15.5M0.5 3.83333C0.5 5.21405 1.61929 6.33333 3 6.33333C4.38071 6.33333 5.5 5.21405 5.5 3.83333C5.5 5.21405 6.61929 6.33333 8 6.33333C9.38071 6.33333 10.5 5.21405 10.5 3.83333C10.5 5.21405 11.6193 6.33333 13 6.33333C14.3807 6.33333 15.5 5.21405 15.5 3.83333M3.16667 15.5H12.8333C13.7668 15.5 14.2335 15.5 14.59 15.3183C14.9036 15.1586 15.1586 14.9036 15.3183 14.59C15.5 14.2335 15.5 13.7668 15.5 12.8333V3.16667C15.5 2.23325 15.5 1.76654 15.3183 1.41002C15.1586 1.09641 14.9036 0.841445 14.59 0.681656C14.2335 0.5 13.7668 0.5 12.8333 0.5H3.16667C2.23325 0.5 1.76654 0.5 1.41002 0.681656C1.09641 0.841445 0.841445 1.09641 0.681656 1.41002C0.5 1.76654 0.5 2.23325 0.5 3.16667V12.8333C0.5 13.7668 0.5 14.2335 0.681656 14.59C0.841445 14.9036 1.09641 15.1586 1.41002 15.3183C1.76654 15.5 2.23325 15.5 3.16667 15.5Z" stroke="#687182" stroke-linecap="round" stroke-linejoin="round"/>
</svg>
