<svg width="15" height="16" viewBox="0 0 15 16" fill="none" xmlns="http://www.w3.org/2000/svg">
<path d="M13.5 14H8.16664M1.16663 14.3333L4.86614 12.9104C5.10277 12.8194 5.22108 12.7739 5.33177 12.7145C5.43009 12.6617 5.52383 12.6008 5.61199 12.5324C5.71124 12.4554 5.80088 12.3658 5.98015 12.1865L13.5 4.66667C14.2364 3.93029 14.2364 2.73638 13.5 2C12.7636 1.26362 11.5697 1.26362 10.8333 2L3.31348 9.51981C3.13421 9.69908 3.04457 9.78872 2.96755 9.88797C2.89914 9.97613 2.83823 10.0699 2.78545 10.1682C2.72603 10.2789 2.68053 10.3972 2.58951 10.6338L1.16663 14.3333ZM1.16663 14.3333L2.53871 10.766C2.63689 10.5107 2.68598 10.3831 2.77019 10.3246C2.84377 10.2735 2.93483 10.2542 3.02282 10.271C3.12351 10.2902 3.22021 10.3869 3.41361 10.5803L4.91967 12.0864C5.11307 12.2798 5.20977 12.3765 5.229 12.4772C5.24581 12.5652 5.22648 12.6562 5.17539 12.7298C5.11692 12.814 4.98928 12.8631 4.73401 12.9613L1.16663 14.3333Z" stroke="#868FA0" stroke-width="1.5" stroke-linecap="round" stroke-linejoin="round"/>
</svg>
