<svg width="16" height="16" viewBox="0 0 16 16" fill="none" xmlns="http://www.w3.org/2000/svg">
<path d="M8 1.74998C8 1.33577 8.33579 0.999985 8.75 0.999985L14.2498 1C14.664 1 14.9998 1.33578 14.9998 1.74999V7.25306C14.9998 7.66727 14.6641 8.00306 14.2498 8.00307C13.8356 8.00307 13.4998 7.66729 13.4998 7.25308L13.4998 3.56082L8.53033 8.53033C8.23744 8.82322 7.76256 8.82322 7.46967 8.53033C7.17678 8.23744 7.17678 7.76256 7.46967 7.46967L12.4393 2.5L8.75 2.49998C8.33579 2.49998 8 2.1642 8 1.74998Z" fill="#868FA0"/>
<path d="M6.25 2.5C6.66421 2.5 7 2.83579 7 3.25C7 3.66421 6.66421 4 6.25 4H3C2.72386 4 2.5 4.22386 2.5 4.5V13C2.5 13.2761 2.72386 13.5 3 13.5H11.5C11.7761 13.5 12 13.2761 12 13V9.75C12 9.33579 12.3358 9 12.75 9C13.1642 9 13.5 9.33579 13.5 9.75V13C13.5 14.1046 12.6046 15 11.5 15H3C1.89543 15 1 14.1046 1 13V4.5C1 3.39543 1.89543 2.5 3 2.5H6.25Z" fill="#868FA0"/>
</svg>
