<?xml version="1.0" encoding="UTF-8"?>
<svg xmlns="http://www.w3.org/2000/svg" xmlns:xlink="http://www.w3.org/1999/xlink" width="21px" height="20px" viewBox="0 0 21 20" version="1.1">
<g id="surface1">
<path style=" stroke:none;fill-rule:nonzero;fill:rgb(0%,32.54902%,60.784314%);fill-opacity:1;" d="M 6.234375 4.839844 C 6.03125 4.335938 5.933594 4.082031 5.972656 3.878906 C 6.011719 3.703125 6.117188 3.546875 6.265625 3.449219 C 6.441406 3.332031 6.710938 3.332031 7.253906 3.332031 L 12.253906 3.332031 C 12.796875 3.332031 13.070312 3.332031 13.242188 3.449219 C 13.390625 3.546875 13.496094 3.703125 13.535156 3.878906 C 13.578125 4.082031 13.476562 4.335938 13.273438 4.839844 L 12.582031 6.570312 C 12.550781 6.644531 12.539062 6.683594 12.527344 6.71875 C 12.519531 6.753906 12.511719 6.789062 12.507812 6.824219 C 12.503906 6.863281 12.503906 6.902344 12.503906 6.980469 L 12.503906 8.445312 C 12.503906 8.585938 12.503906 8.660156 12.515625 8.726562 C 12.527344 8.789062 12.550781 8.847656 12.578125 8.902344 C 12.609375 8.964844 12.652344 9.019531 12.742188 9.132812 L 13.820312 10.480469 C 14.28125 11.050781 14.507812 11.335938 14.507812 11.578125 C 14.507812 11.785156 14.414062 11.984375 14.25 12.117188 C 14.0625 12.265625 13.695312 12.265625 12.964844 12.265625 L 6.542969 12.265625 C 5.8125 12.265625 5.445312 12.265625 5.257812 12.117188 C 5.09375 11.984375 5 11.785156 5 11.578125 C 5 11.335938 5.230469 11.050781 5.6875 10.480469 L 6.765625 9.132812 C 6.855469 9.019531 6.898438 8.964844 6.929688 8.902344 C 6.957031 8.847656 6.980469 8.789062 6.992188 8.726562 C 7.007812 8.660156 7.007812 8.585938 7.007812 8.445312 L 7.007812 6.980469 C 7.007812 6.902344 7.007812 6.863281 7 6.824219 C 6.996094 6.789062 6.992188 6.753906 6.980469 6.71875 C 6.972656 6.683594 6.957031 6.644531 6.925781 6.570312 Z M 6.234375 4.839844 "/>
<path style="fill:none;stroke-width:1.97881;stroke-linecap:round;stroke-linejoin:round;stroke:rgb(0%,32.54902%,60.784314%);stroke-opacity:1;stroke-miterlimit:4;" d="M 11.704688 14.71875 L 11.704688 20.489062 M 8.409375 8.376563 L 8.409375 10.134375 C 8.409375 10.303125 8.409375 10.392188 8.390625 10.471875 C 8.376563 10.546875 8.348437 10.617188 8.315625 10.682812 C 8.278125 10.757812 8.226562 10.823437 8.11875 10.959375 L 6.825 12.576562 C 6.276562 13.260937 6 13.603125 6 13.89375 C 6 14.142188 6.1125 14.38125 6.309375 14.540625 C 6.534375 14.71875 6.975 14.71875 7.851562 14.71875 L 15.557812 14.71875 C 16.434375 14.71875 16.875 14.71875 17.1 14.540625 C 17.296875 14.38125 17.409375 14.142188 17.409375 13.89375 C 17.409375 13.603125 17.1375 13.260937 16.584375 12.576562 L 15.290625 10.959375 C 15.182812 10.823437 15.13125 10.757812 15.09375 10.682812 C 15.060937 10.617188 15.032812 10.546875 15.01875 10.471875 C 15.004687 10.392188 15.004687 10.303125 15.004687 10.134375 L 15.004687 8.376563 C 15.004687 8.282813 15.004687 8.235938 15.009375 8.189063 C 15.014062 8.146875 15.023438 8.104687 15.032812 8.0625 C 15.046875 8.020312 15.060937 7.973437 15.098437 7.884375 L 15.928125 5.807812 C 16.171875 5.203125 16.29375 4.898438 16.242188 4.654687 C 16.195312 4.44375 16.06875 4.25625 15.890625 4.139062 C 15.684375 3.998437 15.35625 3.998437 14.704687 3.998437 L 8.704688 3.998437 C 8.053125 3.998437 7.729687 3.998437 7.51875 4.139062 C 7.340625 4.25625 7.214062 4.44375 7.167187 4.654687 C 7.120312 4.898438 7.2375 5.203125 7.48125 5.807812 L 8.310937 7.884375 C 8.348437 7.973437 8.367188 8.020312 8.376563 8.0625 C 8.390625 8.104687 8.395312 8.146875 8.4 8.189063 C 8.409375 8.235938 8.409375 8.282813 8.409375 8.376563 Z M 8.409375 8.376563 " transform="matrix(0.833333,0,0,0.833333,0,0)"/>
</g>
</svg>
