<?xml version="1.0" encoding="UTF-8"?>
<svg xmlns="http://www.w3.org/2000/svg" xmlns:xlink="http://www.w3.org/1999/xlink" width="20px" height="20px" viewBox="0 0 20 20" version="1.1">
<g id="surface1">
<path style="fill:none;stroke-width:1.77632;stroke-linecap:round;stroke-linejoin:round;stroke:rgb(0%,32.54902%,60.784314%);stroke-opacity:1;stroke-miterlimit:4;" d="M 12.145312 14.7 L 12.145312 21 M 8.592187 7.776562 L 8.592187 9.69375 C 8.592187 9.88125 8.592187 9.975 8.573437 10.064063 C 8.559375 10.14375 8.53125 10.223437 8.49375 10.29375 C 8.45625 10.373437 8.395312 10.448437 8.282813 10.59375 L 6.885937 12.360938 C 6.295312 13.110938 6 13.485938 6 13.8 C 6 14.071875 6.121875 14.334375 6.332813 14.503125 C 6.576562 14.7 7.05 14.7 7.996875 14.7 L 16.29375 14.7 C 17.240625 14.7 17.714063 14.7 17.957812 14.503125 C 18.16875 14.334375 18.290625 14.071875 18.290625 13.8 C 18.290625 13.485938 17.995313 13.110938 17.404687 12.360938 L 16.007812 10.59375 C 15.895312 10.448437 15.834375 10.373437 15.796875 10.29375 C 15.759375 10.223437 15.73125 10.14375 15.717187 10.064063 C 15.698437 9.975 15.698437 9.88125 15.698437 9.69375 L 15.698437 7.776562 C 15.698437 7.673437 15.698437 7.621875 15.703125 7.570312 C 15.707812 7.523438 15.717187 7.48125 15.73125 7.434375 C 15.740625 7.3875 15.759375 7.340625 15.801562 7.242188 L 16.696875 4.973438 C 16.954687 4.3125 17.085938 3.984375 17.029687 3.717187 C 16.982812 3.482813 16.846875 3.28125 16.654687 3.15 C 16.429688 3 16.078125 3 15.375 3 L 8.915625 3 C 8.2125 3 7.860937 3 7.635937 3.15 C 7.44375 3.28125 7.307812 3.482813 7.260937 3.717187 C 7.204687 3.984375 7.335938 4.3125 7.59375 4.973438 L 8.489062 7.242188 C 8.53125 7.340625 8.55 7.3875 8.559375 7.434375 C 8.573437 7.48125 8.582812 7.523438 8.5875 7.570312 C 8.592187 7.621875 8.592187 7.673437 8.592187 7.776562 Z M 8.592187 7.776562 " transform="matrix(0.833333,0,0,0.833333,0,0)"/>
</g>
</svg>
