<svg width="58" height="67" viewBox="0 0 58 67" fill="none" xmlns="http://www.w3.org/2000/svg">
<path fill-rule="evenodd" clip-rule="evenodd" d="M43.5 23.0314C43.5 15.0233 37.0081 8.53143 29 8.53143C20.9919 8.53143 14.5 15.0233 14.5 23.0314V23.9048C14.5 27.109 15.5012 30.2331 17.3635 32.8404L28.9714 49.0913C28.9854 49.111 29.0146 49.111 29.0286 49.0913L40.6365 32.8404C42.4988 30.2331 43.5 27.109 43.5 23.9048V23.0314Z" fill="#6366F1"/>
<path d="M26.1659 17.2328C27.9569 16.3703 30.0431 16.3703 31.8341 17.2328C33.6251 18.0953 34.9259 19.7264 35.3683 21.6644C35.8106 23.6024 35.3464 25.6364 34.1069 27.1906C32.8675 28.7447 30.9879 29.6499 29 29.6499C27.0121 29.6499 25.1325 28.7447 23.8931 27.1906C22.6536 25.6364 22.1894 23.6024 22.6317 21.6644C23.0741 19.7264 24.3749 18.0953 26.1659 17.2328Z" fill="white"/>
<g filter="url(#filter0_i_9_24809)">
<circle cx="29.5" cy="56.5" r="5.75" fill="#6366F1"/>
</g>
<defs>
<filter id="filter0_i_9_24809" x="18" y="44" width="23" height="25" filterUnits="userSpaceOnUse" color-interpolation-filters="sRGB">
<feFlood flood-opacity="0" result="BackgroundImageFix"/>
<feBlend mode="normal" in="SourceGraphic" in2="BackgroundImageFix" result="shape"/>
<feColorMatrix in="SourceAlpha" type="matrix" values="0 0 0 0 0 0 0 0 0 0 0 0 0 0 0 0 0 0 127 0" result="hardAlpha"/>
<feOffset dy="2"/>
<feGaussianBlur stdDeviation="1"/>
<feComposite in2="hardAlpha" operator="arithmetic" k2="-1" k3="1"/>
<feColorMatrix type="matrix" values="0 0 0 0 0 0 0 0 0 0 0 0 0 0 0 0 0 0 0.25 0"/>
<feBlend mode="normal" in2="shape" result="effect1_innerShadow_9_24809"/>
</filter>
</defs>
</svg>
