<svg  class="ml-2" width="14" height="16" viewBox="0 0 14 16" fill="none" xmlns="http://www.w3.org/2000/svg">
      <path d="M2 9.25L2 1.125M2 9.25C2.69036 9.25 3.25 9.80964 3.25 10.5C3.25 11.1904 2.69036 11.75 2 11.75M2 9.25C1.30964 9.25 0.75 9.80964 0.75 10.5C0.75 11.1904 1.30964 11.75 2 11.75M2 14.875L2 11.75M12 9.25V1.125M12 9.25C12.6904 9.25 13.25 9.80964 13.25 10.5C13.25 11.1904 12.6904 11.75 12 11.75M12 9.25C11.3096 9.25 10.75 9.80964 10.75 10.5C10.75 11.1904 11.3096 11.75 12 11.75M12 14.875L12 11.75M7 4.25V1.125M7 4.25C7.69036 4.25 8.25 4.80964 8.25 5.5C8.25 6.19036 7.69036 6.75 7 6.75M7 4.25C6.30964 4.25 5.75 4.80964 5.75 5.5C5.75 6.19036 6.30964 6.75 7 6.75M7 14.875V6.75" stroke="#00539B" stroke-width="1.5" stroke-linecap="round" stroke-linejoin="round" />
      </svg>