<?xml version="1.0" encoding="UTF-8"?>
<svg xmlns="http://www.w3.org/2000/svg" xmlns:xlink="http://www.w3.org/1999/xlink" width="20px" height="20px" viewBox="0 0 20 20" version="1.1">
<g id="surface1">
<path style="fill:none;stroke-width:2.02457;stroke-linecap:round;stroke-linejoin:round;stroke:rgb(100%,100%,100%);stroke-opacity:1;stroke-miterlimit:4;" d="M 10.996871 4.115624 C 11.226558 3.637499 11.348433 3.398436 11.507808 3.323436 C 11.643746 3.257811 11.803121 3.257811 11.939058 3.323436 C 12.098433 3.398436 12.215621 3.637499 12.445308 4.115624 L 14.662495 8.662497 C 14.732807 8.803122 14.76562 8.873434 14.817182 8.929684 C 14.85937 8.976559 14.91562 9.018747 14.976557 9.046872 C 15.042182 9.074997 15.117182 9.089059 15.271869 9.112497 L 20.226555 9.843746 C 20.74218 9.918746 21.00468 9.960934 21.126555 10.092184 C 21.22968 10.199996 21.281242 10.354684 21.257805 10.509371 C 21.239055 10.682809 21.046867 10.870309 20.671867 11.245308 L 17.085931 14.779682 C 16.978119 14.887495 16.921869 14.943745 16.889056 15.00937 C 16.851556 15.070307 16.832806 15.131244 16.823431 15.196869 C 16.814056 15.271869 16.828119 15.351557 16.856244 15.506244 L 17.699994 20.49843 C 17.789056 21.02343 17.835931 21.290617 17.751556 21.445305 C 17.681244 21.581242 17.549994 21.67968 17.399994 21.703117 C 17.226556 21.73593 16.992181 21.614055 16.523431 21.36093 L 12.098433 19.007806 C 11.962496 18.928118 11.892183 18.895306 11.821871 18.876556 C 11.756246 18.867181 11.690621 18.867181 11.624996 18.876556 C 11.554683 18.895306 11.484371 18.928118 11.348433 19.007806 L 6.918747 21.36093 C 6.449998 21.614055 6.22031 21.73593 6.046873 21.703117 C 5.896873 21.67968 5.77031 21.581242 5.69531 21.445305 C 5.610935 21.290617 5.653123 21.02343 5.742185 20.49843 L 6.585935 15.506244 C 6.618748 15.351557 6.63281 15.271869 6.623435 15.196869 C 6.61406 15.131244 6.590623 15.070307 6.55781 15.00937 C 6.524998 14.943745 6.468748 14.887495 6.356248 14.779682 L 2.774999 11.245308 C 2.399999 10.870309 2.207812 10.682809 2.184374 10.509371 C 2.165624 10.354684 2.217187 10.199996 2.320312 10.092184 C 2.442187 9.960934 2.699999 9.918746 3.220311 9.843746 L 8.174997 9.112497 C 8.324997 9.089059 8.404684 9.074997 8.470309 9.046872 C 8.531247 9.018747 8.587497 8.976559 8.629684 8.929684 C 8.681247 8.873434 8.714059 8.803122 8.784372 8.662497 Z M 10.996871 4.115624 " transform="matrix(0.833334,0,0,0.833334,0,0)"/>
</g>
</svg>
