<?xml version="1.0" encoding="UTF-8"?>
<svg xmlns="http://www.w3.org/2000/svg" xmlns:xlink="http://www.w3.org/1999/xlink" width="20px" height="20px" viewBox="0 0 20 20" version="1.1">
<g id="surface1">
<path style="fill-rule:nonzero;fill:rgb(100%,83.921569%,39.607843%);fill-opacity:1;stroke-width:1.56248;stroke-linecap:round;stroke-linejoin:round;stroke:rgb(100%,83.921569%,39.607843%);stroke-opacity:1;stroke-miterlimit:4;" d="M 11.254683 3.951561 C 11.493746 3.454686 11.610933 3.210936 11.774996 3.131249 C 11.920308 3.065624 12.079683 3.065624 12.224996 3.131249 C 12.389058 3.210936 12.506245 3.454686 12.745308 3.951561 L 15.023432 8.624997 C 15.093745 8.770309 15.131244 8.840622 15.182807 8.896872 C 15.229682 8.948434 15.285932 8.990622 15.346869 9.018747 C 15.412494 9.051559 15.492182 9.065622 15.651557 9.084372 L 20.746867 9.839059 C 21.281242 9.918746 21.54843 9.960934 21.67968 10.092184 C 21.782805 10.209371 21.834367 10.368746 21.815617 10.523434 C 21.787492 10.706246 21.595305 10.898434 21.21093 11.278121 L 17.521869 14.920307 C 17.409369 15.032807 17.348431 15.089057 17.315619 15.159369 C 17.278119 15.215619 17.259369 15.281244 17.249994 15.351557 C 17.240619 15.426557 17.254681 15.506244 17.282806 15.665619 L 18.154681 20.803117 C 18.243743 21.346867 18.290618 21.618742 18.206243 21.778117 C 18.126556 21.914055 17.995306 22.012492 17.840619 22.045304 C 17.662494 22.078117 17.423431 21.951555 16.945306 21.693742 L 12.389058 19.265618 C 12.248433 19.195306 12.173433 19.153118 12.103121 19.139056 C 12.032808 19.124993 11.967183 19.124993 11.896871 19.139056 C 11.826558 19.153118 11.751558 19.195306 11.610933 19.265618 L 7.054685 21.693742 C 6.57656 21.951555 6.337498 22.078117 6.159373 22.045304 C 6.004685 22.012492 5.873435 21.914055 5.793748 21.778117 C 5.709373 21.618742 5.756248 21.346867 5.84531 20.803117 L 6.717185 15.665619 C 6.74531 15.506244 6.759373 15.426557 6.749998 15.351557 C 6.740623 15.281244 6.721873 15.215619 6.684373 15.159369 C 6.65156 15.089057 6.590623 15.032807 6.478123 14.920307 L 2.789061 11.278121 C 2.404687 10.898434 2.212499 10.706246 2.184374 10.523434 C 2.165624 10.368746 2.217187 10.209371 2.320312 10.092184 C 2.451562 9.960934 2.718749 9.918746 3.253124 9.839059 L 8.348434 9.084372 C 8.507809 9.065622 8.587497 9.051559 8.653122 9.018747 C 8.714059 8.990622 8.770309 8.948434 8.817184 8.896872 C 8.868747 8.840622 8.906247 8.770309 8.976559 8.624997 Z M 11.254683 3.951561 " transform="matrix(0.833334,0,0,0.833334,0,0)"/>
</g>
</svg>
