<svg width="20" height="16" viewBox="0 0 20 16" fill="none" xmlns="http://www.w3.org/2000/svg">
<path d="M11.8333 3.41667H13.9757C14.1999 3.41667 14.3121 3.41667 14.4175 3.442C14.5111 3.46445 14.6005 3.50149 14.6825 3.55175C14.775 3.60844 14.8543 3.68771 15.0128 3.84625L18.737 7.57043C18.8955 7.72897 18.9748 7.80824 19.0315 7.90074C19.0818 7.98276 19.1188 8.07218 19.1413 8.16571C19.1666 8.27121 19.1666 8.38331 19.1666 8.60752V11.2083C19.1666 11.6355 19.1666 11.849 19.0968 12.0175C19.0038 12.2421 18.8253 12.4205 18.6007 12.5136C18.4323 12.5833 18.2187 12.5833 17.7916 12.5833M13.2083 12.5833H11.8333M11.8333 12.5833V3.60001C11.8333 2.57324 11.8333 2.05986 11.6334 1.66769C11.4577 1.32273 11.1772 1.04226 10.8322 0.866493C10.4401 0.666672 9.92668 0.666672 8.89992 0.666672H3.76659C2.73982 0.666672 2.22644 0.666672 1.83427 0.866493C1.48931 1.04226 1.20884 1.32273 1.03307 1.66769C0.833252 2.05986 0.833252 2.57324 0.833252 3.6V10.75C0.833252 11.7625 1.65406 12.5833 2.66659 12.5833M11.8333 12.5833H8.16658M8.16658 12.5833C8.16658 14.1021 6.93537 15.3333 5.41659 15.3333C3.8978 15.3333 2.66659 14.1021 2.66659 12.5833M8.16658 12.5833C8.16658 11.0646 6.93537 9.83334 5.41659 9.83334C3.8978 9.83334 2.66659 11.0646 2.66659 12.5833M17.7916 13.0417C17.7916 14.3073 16.7656 15.3333 15.4999 15.3333C14.2343 15.3333 13.2083 14.3073 13.2083 13.0417C13.2083 11.776 14.2343 10.75 15.4999 10.75C16.7656 10.75 17.7916 11.776 17.7916 13.0417Z" stroke="#687182" stroke-linecap="round" stroke-linejoin="round"/>
</svg>
